# xmcd
#
# Track frame offsets:
#	150
#	10009
#	23544
#	36391
#	50051
#	61182
#	76425
#	87667
#	100477
#	111590
#	123281
#	135538
#	144637
#	157223
#	170225
#	188795
#	204340
#	216680
#	233065
#	246709
#	261437
#	275185
#	289108
#	307594
#	319796
#	332420
#	341157
#
# Disc length: 4697 seconds
#
# Revision: 1
# Processed by: cddbd v1.5.2PL0 Copyright (c) Steve Scherf et al.
# Submitted via: audiograbber 1.83.01
#
DISCID=a912571b
DTITLE=Mac Wiseman - On Susan's Floor [1965-1979] CD2
DYEAR=2006
DGENRE=Country
TTITLE0=We Live In Two Different Worlds
TTITLE1=Tragic Romance
TTITLE2=I'll Be All Smiles Tonight
TTITLE3=This Is Where I Came In
TTITLE4=You're The Best Of All The Leading Brands
TTITLE5=Don't Make Me Go To Bed And I'll Be Good
TTITLE6=he Bluebirds Are Singing For Me
TTITLE7=New Black Suit
TTITLE8=How Lonely Can You Get
TTITLE9=Since The Day You Went Away
TTITLE10=Darling Little Joe
TTITLE11=A Million, Million Girls
TTITLE12=The Letter That Never Came
TTITLE13=Wreck Of The C&O #5
TTITLE14=The Black Sheep
TTITLE15=The Legend Of The Haunted Woods
TTITLE16=Put My Little Shoes Away
TTITLE17=The Letter Edged In Black
TTITLE18=Ballad Of The Lawson Family
TTITLE19=he East Bound Train
TTITLE20=My Mother's Old Sunbonnet
TTITLE21=May I Sleep In Your Barn Tonight Mister
TTITLE22=Molly Bawn
TTITLE23=White Silver Sands
TTITLE24=When It's Springtime In The Rockies
TTITLE25=Little Bird
TTITLE26=You're The Only Star In My Blue Heaven
EXTD=
EXTT0=
EXTT1=
EXTT2=
EXTT3=
EXTT4=
EXTT5=
EXTT6=
EXTT7=
EXTT8=
EXTT9=
EXTT10=
EXTT11=
EXTT12=
EXTT13=
EXTT14=
EXTT15=
EXTT16=
EXTT17=
EXTT18=
EXTT19=
EXTT20=
EXTT21=
EXTT22=
EXTT23=
EXTT24=
EXTT25=
EXTT26=
PLAYORDER=
